# xmcd
# 
# Track frame offsets:
#     150
#     12250
#     24357
#     33745
#     41307
#     56100
#     70370
#     84922
#     98304
#     108857
#     121392
#     132847
#     143120
#     152220
#     164740
# 
# Disc length: 2306
# 
# Revision: 2
# Processed by: cddbd v1.5.2PL0 Copyright (c) Steve Scherf et al.
# Submitted via: BonkEnc v1.0.8
# 
DISCID=bf09000f
DTITLE=Buddy Davis - It's A Whale Of A Story!
DYEAR=1998
DGENRE=Christian Country
TTITLE0=It's A Whale Of A Story!
TTITLE1=No Matter What We Know
TTITLE2=Riding Our Ponies
TTITLE3=Ribit, Ribit, Ribit
TTITLE4=Where Did Cain's Wife Come From?
TTITLE5=Come To Me Little Children
TTITLE6=Billions Of Dead Things
TTITLE7=From A Frog To A Prince
TTITLE8=Chameleon Christian
TTITLE9=Leviathan
TTITLE10=I Know All The Dinosaurs
TTITLE11=The Giant Went Down
TTITLE12=Freckles The Clown
TTITLE13=Problem Solved
TTITLE14=It's Designed To Do
EXTD="This Recording is dedicated to all the children whom we have met at our AiG seminars and workshops.  I hope this album blesses you and draws you closer to our Creator."   - Buddy Davis
EXTT0=
EXTT1=
EXTT2=
EXTT3=
EXTT4=
EXTT5=
EXTT6=
EXTT7=
EXTT8=
EXTT9=
EXTT10=
EXTT11=
EXTT12=
EXTT13=
EXTT14=
PLAYORDER=
